<?xml version="1.0" encoding="UTF-8" standalone="no"?>
<!-- Created with Inkscape (http://www.inkscape.org/) -->

<svg
   xmlns:dc="http://purl.org/dc/elements/1.1/"
   xmlns:cc="http://creativecommons.org/ns#"
   xmlns:rdf="http://www.w3.org/1999/02/22-rdf-syntax-ns#"
   xmlns:svg="http://www.w3.org/2000/svg"
   xmlns="http://www.w3.org/2000/svg"
   xmlns:sodipodi="http://sodipodi.sourceforge.net/DTD/sodipodi-0.dtd"
   xmlns:inkscape="http://www.inkscape.org/namespaces/inkscape"
   width="64"
   height="64"
   id="svg4203"
   version="1.1"
   inkscape:version="0.91 r13725"
   viewBox="0 0 64 64"
   sodipodi:docname="logo.svg">
  <defs
     id="defs4205">
    <filter
       style="color-interpolation-filters:sRGB;"
       inkscape:label="Drop Shadow"
       id="filter5879">
      <feFlood
         flood-opacity="1"
         flood-color="rgb(0,0,0)"
         result="flood"
         id="feFlood5881" />
      <feComposite
         in="flood"
         in2="SourceGraphic"
         operator="in"
         result="composite1"
         id="feComposite5883" />
      <feGaussianBlur
         in="composite1"
         stdDeviation="1"
         result="blur"
         id="feGaussianBlur5885" />
      <feOffset
         dx="0"
         dy="0"
         result="offset"
         id="feOffset5887" />
      <feComposite
         in="SourceGraphic"
         in2="offset"
         operator="over"
         result="composite2"
         id="feComposite5889" />
    </filter>
    <filter
       style="color-interpolation-filters:sRGB;"
       inkscape:label="Drop Shadow"
       id="filter5891">
      <feFlood
         flood-opacity="1"
         flood-color="rgb(0,0,0)"
         result="flood"
         id="feFlood5893" />
      <feComposite
         in="flood"
         in2="SourceGraphic"
         operator="in"
         result="composite1"
         id="feComposite5895" />
      <feGaussianBlur
         in="composite1"
         stdDeviation="1"
         result="blur"
         id="feGaussianBlur5897" />
      <feOffset
         dx="0"
         dy="0"
         result="offset"
         id="feOffset5899" />
      <feComposite
         in="SourceGraphic"
         in2="offset"
         operator="over"
         result="composite2"
         id="feComposite5901" />
    </filter>
  </defs>
  <sodipodi:namedview
     id="base"
     pagecolor="#ffffff"
     bordercolor="#666666"
     borderopacity="1.0"
     inkscape:pageopacity="0.0"
     inkscape:pageshadow="2"
     inkscape:zoom="5.5"
     inkscape:cx="5.1818182"
     inkscape:cy="32"
     inkscape:current-layer="layer1"
     showgrid="true"
     inkscape:document-units="px"
     inkscape:grid-bbox="true"
     inkscape:window-width="1920"
     inkscape:window-height="1018"
     inkscape:window-x="-8"
     inkscape:window-y="-8"
     inkscape:window-maximized="1">
    <inkscape:grid
       type="xygrid"
       id="grid4211" />
  </sodipodi:namedview>
  <metadata
     id="metadata4208">
    <rdf:RDF>
      <cc:Work
         rdf:about="">
        <dc:format>image/svg+xml</dc:format>
        <dc:type
           rdf:resource="http://purl.org/dc/dcmitype/StillImage" />
        <dc:title />
      </cc:Work>
    </rdf:RDF>
  </metadata>
  <g
     id="layer1"
     inkscape:label="Layer 1"
     inkscape:groupmode="layer">
    <path
       inkscape:connector-curvature="0"
       style="fill:#0086ee;fill-opacity:1;stroke:none;filter:url(#filter5891)"
       d="M 37.125035,2.2034973 A 29.737264,29.612316 0 0 0 7.3865857,31.817025 29.737264,29.612316 0 0 0 37.125035,61.428107 29.737264,29.612316 0 0 0 57.959829,52.906565 L 51.324348,46.271072 A 20.269395,20.269395 0 0 1 37.125035,52.086004 20.269395,20.269395 0 0 1 16.856055,31.817025 20.269395,20.269395 0 0 1 37.125035,11.5456 20.269395,20.269395 0 0 1 51.314541,17.367881 l 6.657541,-6.65754 A 29.737264,29.612316 0 0 0 37.125035,2.2034973 Z"
       id="path4154" />
    <path
       style="fill:#ffffff;fill-opacity:1;stroke:none;filter:url(#filter5879)"
       d="M 34.24629,16.144389 A 15.961189,15.961189 0 0 0 21.264349,31.815796 15.961189,15.961189 0 0 0 34.24629,47.482311 l 0,-7.463391 a 8.7405367,8.7405367 0 0 1 -4.972337,-4.592669 l 15.896769,0 a 8.7405367,8.7405367 0 0 1 -4.96988,4.59756 l 0,7.463391 A 15.961189,15.961189 0 0 0 53.185229,31.815808 15.961189,15.961189 0 0 0 40.200842,16.144402 l 0,7.465836 a 8.7405367,8.7405367 0 0 1 4.974771,4.595115 l -15.896757,0 a 8.7405367,8.7405367 0 0 1 4.967434,-4.59756 l 0,-7.463391 z"
       id="path4167"
       inkscape:connector-curvature="0" />
  </g>
</svg>
